<?xml version="1.0" standalone="no"?><!DOCTYPE svg PUBLIC "-//W3C//DTD SVG 1.1//EN" "http://www.w3.org/Graphics/SVG/1.1/DTD/svg11.dtd"><svg t="1629076032681" class="icon" viewBox="0 0 1024 1024" version="1.1" xmlns="http://www.w3.org/2000/svg" p-id="4424" xmlns:xlink="http://www.w3.org/1999/xlink" width="200" height="200"><defs><style type="text/css"></style></defs><path d="M721.578667 987.178667H298.154667a122.965333 122.965333 0 0 1-122.794667-122.794667V241.066667c0-26.794667 20.48-47.232 47.232-47.232H798.72c26.752 0 47.232 20.48 47.232 47.232v621.781333a123.605333 123.605333 0 0 1-124.373333 124.373333zM269.824 288.256v574.549333c0 15.786667 12.586667 28.330667 28.330667 28.330667h423.424a28.202667 28.202667 0 0 0 28.330666-28.330667V288.256H269.824z" p-id="4425" fill="#ffffff"></path><path d="M704.256 288.256a47.573333 47.573333 0 0 1-47.189333-42.538667l-7.893334-81.834666a30.933333 30.933333 0 0 0-31.488-28.330667h-212.48a31.061333 31.061333 0 0 0-31.488 28.330667l-9.472 81.834666a48.768 48.768 0 0 1-51.925333 42.538667 48.768 48.768 0 0 1-42.538667-51.968l7.893334-81.834667C283.989333 89.898667 339.072 41.088 403.626667 41.088h212.48c64.554667 0 119.637333 48.810667 125.952 113.365333l7.850666 81.834667c3.157333 25.173333-15.744 48.810667-42.496 51.968h-3.114666z" p-id="4426" fill="#ffffff"></path><path d="M934.101333 288.256H85.632C58.88 288.256 38.4 267.776 38.4 241.024c0-26.794667 20.48-47.232 47.232-47.232h848.469333c26.752 0 47.232 20.48 47.232 47.232s-20.48 47.232-47.232 47.232z" p-id="4427" fill="#ffffff"></path></svg>