<?xml version="1.0" standalone="no"?><!DOCTYPE svg PUBLIC "-//W3C//DTD SVG 1.1//EN" "http://www.w3.org/Graphics/SVG/1.1/DTD/svg11.dtd"><svg t="1629075881489" class="icon" viewBox="0 0 1024 1024" version="1.1" xmlns="http://www.w3.org/2000/svg" p-id="3133" xmlns:xlink="http://www.w3.org/1999/xlink" width="200" height="200"><defs><style type="text/css"></style></defs><path d="M921.6 237.568h-157.952L603.904 76.8a153.6 153.6 0 0 0-108.8-45.056H128a102.4 102.4 0 0 0-102.4 102.4v137.984a102.4 102.4 0 0 0-25.6 66.816v512a102.4 102.4 0 0 0 102.4 102.4h819.2a102.4 102.4 0 0 0 102.4-102.4v-512a102.4 102.4 0 0 0-102.4-101.376z m-793.6-102.4h367.104a51.2 51.2 0 0 1 36.352 15.104l87.296 87.296H128z m793.6 716.8H102.4v-512h819.2z" p-id="3134" fill="#ffffff"></path><path d="M305.408 654.336H565.76l-20.992 21.248a51.2 51.2 0 0 0 72.448 72.448L724.992 640a51.2 51.2 0 0 0 13.568-25.6 44.8 44.8 0 0 0 0-10.24 47.872 47.872 0 0 0 0-10.24 51.2 51.2 0 0 0-13.568-25.6l-107.776-107.776a51.2 51.2 0 0 0-72.448 72.448l20.992 20.992H305.408a51.2 51.2 0 0 0-51.2 51.2 51.2 51.2 0 0 0 51.2 49.152z" p-id="3135" fill="#ffffff"></path></svg>