<?xml version="1.0" standalone="no"?><!DOCTYPE svg PUBLIC "-//W3C//DTD SVG 1.1//EN" "http://www.w3.org/Graphics/SVG/1.1/DTD/svg11.dtd"><svg t="1628055560679" class="icon" viewBox="0 0 1024 1024" version="1.1" xmlns="http://www.w3.org/2000/svg" p-id="17548" xmlns:xlink="http://www.w3.org/1999/xlink" width="200" height="200"><defs><style type="text/css"></style></defs><path d="M781.9 471.5c0-0.6 0.1-1.1 0.1-1.7 0-82.8-63.7-149.9-142.4-149.9-7.3 0-14.3 0.8-21.3 1.9-40.3-38.2-101.4-62.6-169.9-62.6-121.3 0-219.7 76.5-219.7 170.8 0 14.4 2.5 28.2 6.8 41.5-67.2 14.8-117.8 74.9-117.8 146.4 0 82.5 67.5 149.9 149.9 149.9h482.1c82.5 0 149.9-67.5 149.9-149.9 0.1-71.5-50.6-131.6-117.7-146.4z" fill="#D6B0F7" p-id="17549"></path><path d="M749.7 775.8H267.6c-42 0-81.6-16.5-111.6-46.4-29.9-29.9-46.4-69.5-46.4-111.6 0-36.1 12.6-71.4 35.5-99.5 20.8-25.4 49-43.9 80.3-52.6-3.2-12.1-4.8-24.1-4.8-35.8 0-48.2 23.9-93.3 67.4-127.1 42.9-33.4 99.8-51.7 160.3-51.7 66.6 0 129.2 22.6 172.6 62.1 6.8-0.9 12.8-1.4 18.7-1.4 81.4 0 148 68.4 150.3 153.4 32 8.5 61.1 27.2 82.2 53.2 22.9 28.1 35.5 63.4 35.5 99.4 0 42-16.5 81.6-46.4 111.6-29.8 29.9-69.5 46.4-111.5 46.4zM448.4 267.1c-116.7 0-211.7 73-211.7 162.8 0 12.7 2.2 25.8 6.4 39.1 0.7 2.1 0.4 4.5-0.7 6.4-1.1 2-3 3.3-5.2 3.8-31.1 6.8-59.3 24.3-79.6 49.2-20.6 25.2-31.9 57-31.9 89.4 0 37.8 14.8 73.3 41.7 100.2s62.5 41.7 100.2 41.7h482.1c37.7 0 73.3-14.8 100.2-41.7s41.7-62.5 41.7-100.2c0-32.4-11.3-64.1-31.9-89.3-20.3-24.9-48.5-42.3-79.6-49.2-3.7-0.8-6.3-4.1-6.3-7.9 0-0.4 0-0.9 0.1-1.3v-0.3c0-78.2-60.3-141.9-134.4-141.9-6.1 0-12.5 0.6-20 1.8-2.5 0.4-5-0.4-6.8-2.1-40.3-38.5-100.3-60.5-164.3-60.5z" fill="#050405" p-id="17550"></path><path d="M349.2 703.7h-78.8c-45.2 0-82-36.8-82-82 0-4.4 3.6-8 8-8s8 3.6 8 8c0 36.4 29.6 66 66 66h78.8c4.4 0 8 3.6 8 8s-3.5 8-8 8zM425.1 703.7h-20.9c-4.4 0-8-3.6-8-8s3.6-8 8-8h20.9c4.4 0 8 3.6 8 8s-3.5 8-8 8z" fill="#050405" p-id="17551"></path></svg>