<?xml version="1.0" standalone="no"?><!DOCTYPE svg PUBLIC "-//W3C//DTD SVG 1.1//EN" "http://www.w3.org/Graphics/SVG/1.1/DTD/svg11.dtd"><svg t="1629684746144" class="icon" viewBox="0 0 1024 1024" version="1.1" xmlns="http://www.w3.org/2000/svg" p-id="2220" xmlns:xlink="http://www.w3.org/1999/xlink" width="200" height="200"><defs><style type="text/css"></style></defs><path d="M267.294 465l93.1 97.358c17.174 17.96 16.538 46.446-1.424 63.622-17.962 17.178-46.448 16.54-63.624-1.422L129.476 451.1c-17.176-17.96-16.54-46.448 1.424-63.624a45.408 45.408 0 0 1 4.672-3.904l160.774-168.13c17.176-17.962 45.66-18.6 63.624-1.422 17.96 17.176 18.6 45.66 1.422 63.622L268.294 375h538.068c57.99 0 105 47.01 105 105v237c0 57.99-47.01 105-105 105h-293.68c-24.854 0-45-20.148-45-45s20.146-45 45-45h293.68a15 15 0 0 0 15-15V480a15 15 0 0 0-15-15H267.294z" p-id="2221"></path></svg>