<?xml version="1.0" standalone="no"?><!DOCTYPE svg PUBLIC "-//W3C//DTD SVG 1.1//EN" "http://www.w3.org/Graphics/SVG/1.1/DTD/svg11.dtd"><svg t="1628154509795" class="icon" viewBox="0 0 1024 1024" version="1.1" xmlns="http://www.w3.org/2000/svg" p-id="2271" xmlns:xlink="http://www.w3.org/1999/xlink" width="200" height="200"><defs><style type="text/css"></style></defs><path d="M893.25056 795.97568H130.74944A48.83968 48.83968 0 0 1 81.92 747.22304V151.15264A48.83968 48.83968 0 0 1 130.74944 102.4h762.50112A48.8448 48.8448 0 0 1 942.08 151.15264v596.0704a48.8448 48.8448 0 0 1-48.82944 48.75264zM151.552 726.43584h720.896v-554.496H151.552v554.496zM847.63136 921.6h-677.888a34.76992 34.76992 0 1 1 0-69.53984h677.888a34.76992 34.76992 0 1 1 0 69.53984z" fill="#4A4A4A" p-id="2272"></path><path d="M242.36032 623.58016a34.816 34.816 0 0 1-25.31328-58.73664l158.08-167.49056a48.87552 48.87552 0 0 1 58.81344-9.37984l176.128 95.85152 144.95744-166.25152a34.816 34.816 0 1 1 52.48512 45.77792L651.59168 542.208a48.512 48.512 0 0 1-60.11392 10.80832L414.76096 456.832l-147.07712 155.83232a34.69824 34.69824 0 0 1-25.32352 10.91584z" fill="#FF7214" p-id="2273"></path></svg>