<?xml version="1.0" standalone="no"?><!DOCTYPE svg PUBLIC "-//W3C//DTD SVG 1.1//EN" "http://www.w3.org/Graphics/SVG/1.1/DTD/svg11.dtd"><svg t="1628154504562" class="icon" viewBox="0 0 1024 1024" version="1.1" xmlns="http://www.w3.org/2000/svg" p-id="2139" xmlns:xlink="http://www.w3.org/1999/xlink" width="200" height="200"><defs><style type="text/css"></style></defs><path d="M900.6336 465.2544H119.808a37.74464 37.74464 0 0 1 0-75.48416h780.8512a37.74464 37.74464 0 0 1-0.0256 75.48416z" fill="#FF7214" p-id="2140"></path><path d="M899.87584 901.12H124.12928A52.55168 52.55168 0 0 1 71.68 848.57344V180.54144A52.55168 52.55168 0 0 1 124.12928 128h308.48a52.62336 52.62336 0 0 1 23.45472 5.55008L615.6288 213.504h284.24704A52.55168 52.55168 0 0 1 952.32 266.0352v582.53824A52.54656 52.54656 0 0 1 899.87584 901.12zM146.48832 826.16832h731.02336V288.44032h-267.16672a52.65408 52.65408 0 0 1-23.3984-5.52448L427.32032 202.95168h-280.832v623.21664zM899.87584 288.44032z" fill="#4A4A4A" p-id="2141"></path></svg>