<?xml version="1.0" standalone="no"?><!DOCTYPE svg PUBLIC "-//W3C//DTD SVG 1.1//EN" "http://www.w3.org/Graphics/SVG/1.1/DTD/svg11.dtd"><svg t="1628154522608" class="icon" viewBox="0 0 1024 1024" version="1.1" xmlns="http://www.w3.org/2000/svg" p-id="2667" xmlns:xlink="http://www.w3.org/1999/xlink" width="200" height="200"><defs><style type="text/css"></style></defs><path d="M900.096 202.16832h-200.61184V121.03168c0-16.896-13.4656-33.99168-39.20384-33.99168H363.71968c-25.73824 0-39.20384 17.1008-39.20384 33.99168v81.13664H123.904a31.744 31.744 0 1 0 0 63.488h776.192a31.744 31.744 0 1 0 0-63.488zM388.04992 150.528h247.90016v51.64032H388.04992V150.528z m392.8064 152.15104a31.744 31.744 0 0 0-31.744 31.744V873.472H277.34528V334.45376a31.744 31.744 0 0 0-63.52896 0v559.6416a43.78112 43.78112 0 0 0 44.544 42.86464h509.70624a43.78112 43.78112 0 0 0 44.544-42.86464V334.45376a31.744 31.744 0 0 0-31.75424-31.75424z" fill="#4A4A4A" p-id="2668"></path><path d="M379.904 736.96768a31.6928 31.6928 0 0 1-31.744-31.68256v-253.44a31.70304 31.70304 0 0 1 63.4112 0v253.44a31.6928 31.6928 0 0 1-31.6672 31.68256z m130.59584 0a31.6928 31.6928 0 0 1-31.70304-31.68256v-253.44a31.70304 31.70304 0 0 1 63.4112 0v253.44a31.6928 31.6928 0 0 1-31.744 31.68256z m130.59584 0a31.6928 31.6928 0 0 1-31.70304-31.68256v-253.44a31.70816 31.70816 0 0 1 63.4112 0v253.44a31.6928 31.6928 0 0 1-31.73376 31.68256z" fill="#FF7214" p-id="2669"></path></svg>